<svg xmlns="http://www.w3.org/2000/svg" xmlns:xlink="http://www.w3.org/1999/xlink" width="500" zoomAndPan="magnify" viewBox="0 0 375 374.999991" height="500" preserveAspectRatio="xMidYMid meet" version="1.0"><defs><clipPath id="8b8b69d284"><path d="M 161 14.929688 L 344 14.929688 L 344 359.929688 L 161 359.929688 Z M 161 14.929688 " clip-rule="nonzero"/></clipPath></defs><g clip-path="url(#8b8b69d284)"><path fill="#5170ff" d="M 285.378906 14.929688 C 277.9375 14.929688 274.71875 19.621094 272.046875 24.410156 L 161.289062 220.828125 L 232.015625 350.578125 C 234.472656 355 238.277344 360.070312 245.914062 360.070312 L 295.636719 360.070312 C 298.628906 360.070312 301.027344 358.9375 302.246094 356.835938 C 303.558594 354.703125 303.53125 351.898438 302.140625 349.140625 L 231.964844 220.988281 C 231.898438 220.882812 231.898438 220.757812 231.964844 220.65625 L 342.183594 25.789062 C 343.5625 23.039062 343.59375 20.234375 342.289062 18.109375 C 341.011719 16.050781 338.65625 14.929688 335.65625 14.929688 Z M 285.378906 14.929688 " fill-opacity="1" fill-rule="nonzero"/></g><path fill="#ffbd59" d="M 76.214844 83.03125 C 73.21875 83.03125 70.863281 84.164062 69.601562 86.210938 C 68.292969 88.34375 68.328125 91.140625 69.710938 93.90625 L 103.585938 152.015625 C 103.644531 152.128906 103.644531 152.242188 103.585938 152.355469 L 50.554688 245.757812 C 49.171875 248.507812 49.152344 251.3125 50.46875 253.441406 C 51.742188 255.492188 54.082031 256.625 57.078125 256.625 L 106.988281 256.625 C 114.433594 256.625 117.792969 251.726562 120.335938 247.132812 L 174.265625 152.1875 C 174.050781 151.847656 139.902344 92.53125 139.902344 92.53125 C 137.433594 88.109375 133.625 83.03125 125.988281 83.03125 Z M 76.214844 83.03125 " fill-opacity="1" fill-rule="nonzero"/></svg>